<?xml version="1.0" standalone="no"?>
<!DOCTYPE svg PUBLIC "-//W3C//DTD SVG 20010904//EN"
 "http://www.w3.org/TR/2001/REC-SVG-20010904/DTD/svg10.dtd">
<svg version="1.0" xmlns="http://www.w3.org/2000/svg"
 width="200.000000pt" height="200.000000pt" viewBox="0 0 200.000000 200.000000"
 preserveAspectRatio="xMidYMid meet">

<g transform="translate(0.000000,200.000000) scale(0.100000,-0.100000)"
fill="#000000" stroke="none">
<path d="M510 1214 c0 -3 9 -18 19 -33 11 -15 21 -40 23 -56 4 -38 28 -46 28
-10 0 15 10 43 21 62 26 41 16 58 -13 23 l-20 -25 -15 23 c-14 20 -43 31 -43
16z"/>
<path d="M1330 1155 l0 -65 35 0 c24 0 35 5 35 15 0 9 -9 15 -25 15 -23 0 -25
3 -25 50 0 28 -4 50 -10 50 -6 0 -10 -28 -10 -65z"/>
<path d="M1680 1200 c0 -14 -7 -20 -23 -20 -29 0 -47 -18 -47 -46 0 -29 18
-41 58 -41 l32 0 0 64 c0 35 -4 63 -10 63 -5 0 -10 -9 -10 -20z m-5 -60 c0 -8
-8 -16 -17 -18 -13 -2 -18 3 -18 18 0 15 5 20 18 18 9 -2 17 -10 17 -18z"/>
<path d="M1128 1167 c-33 -81 -33 -77 1 -77 31 0 38 8 22 26 -5 5 -5 19 1 34
7 20 11 22 18 10 6 -8 7 -27 4 -42 -5 -26 -3 -28 25 -28 l31 0 -25 56 c-14 31
-25 58 -25 60 0 2 -8 4 -17 4 -12 0 -24 -15 -35 -43z"/>
<path d="M1240 1150 c0 -47 3 -60 15 -60 12 0 15 13 15 60 0 47 -3 60 -15 60
-12 0 -15 -13 -15 -60z"/>
<path d="M642 1168 c-27 -27 -1 -78 38 -78 29 0 54 43 40 69 -12 24 -58 29
-78 9z m56 -31 c2 -12 -3 -17 -17 -17 -12 0 -21 6 -21 13 0 31 32 34 38 4z"/>
<path d="M740 1146 c0 -40 16 -56 55 -53 28 2 30 6 33 45 2 33 0 42 -12 42
-11 0 -16 -10 -16 -30 0 -20 -5 -30 -15 -30 -10 0 -15 10 -15 30 0 20 -5 30
-15 30 -10 0 -15 -10 -15 -34z"/>
<path d="M850 1135 c0 -54 23 -59 28 -7 3 31 21 45 23 20 1 -7 2 -17 4 -23 1
-5 3 -16 3 -22 1 -7 7 -13 13 -13 6 0 9 17 7 43 -3 41 -4 42 -40 45 l-38 3 0
-46z"/>
<path d="M962 1168 c-29 -29 2 -84 40 -72 14 4 18 2 14 -5 -4 -6 -18 -11 -31
-11 -33 0 -40 -17 -10 -24 34 -9 65 9 67 39 4 82 5 79 -32 82 -20 2 -41 -2
-48 -9z m53 -29 c0 -7 -8 -15 -17 -17 -18 -3 -25 18 -11 32 10 10 28 1 28 -15z"/>
<path d="M1420 1165 c-18 -22 -4 -64 25 -71 26 -6 45 1 45 17 0 6 -9 8 -19 4
-11 -3 -22 -1 -26 5 -4 6 6 10 24 10 19 0 31 5 31 13 0 34 -57 50 -80 22z m47
-11 c-3 -3 -12 -4 -19 -1 -8 3 -5 6 6 6 11 1 17 -2 13 -5z"/>
<path d="M1520 1171 c0 -6 10 -11 23 -11 21 -1 20 -2 -5 -16 -44 -23 -32 -47
25 -50 27 -2 28 0 25 40 -3 38 -5 41 -35 44 -19 2 -33 -1 -33 -7z m45 -51 c-3
-5 -10 -10 -16 -10 -5 0 -9 5 -9 10 0 6 7 10 16 10 8 0 12 -4 9 -10z"/>
<path d="M1730 1160 c-6 -12 -8 -30 -5 -40 10 -32 75 -39 75 -9 0 6 -9 8 -19
4 -11 -3 -22 -1 -26 5 -4 6 6 10 24 10 32 0 41 16 19 38 -19 19 -56 14 -68 -8z
m47 -6 c-3 -3 -12 -4 -19 -1 -8 3 -5 6 6 6 11 1 17 -2 13 -5z"/>
<path d="M1830 1134 c0 -49 22 -59 28 -13 2 13 8 28 13 34 16 16 10 25 -16 25
-23 0 -25 -4 -25 -46z"/>
<path d="M1894 1165 c-7 -18 3 -35 22 -35 8 0 14 -5 14 -11 0 -6 -7 -9 -15 -6
-17 7 -30 -9 -15 -18 17 -11 60 4 60 20 0 7 -10 21 -22 29 l-22 16 22 0 c13 0
20 4 17 10 -9 15 -55 12 -61 -5z"/>
<path d="M542 1034 c-32 -22 -30 -78 2 -100 29 -18 71 -15 71 6 0 9 -10 14
-30 15 -27 0 -30 3 -30 30 0 26 4 30 27 30 34 1 47 13 28 25 -22 14 -43 12
-68 -6z"/>
<path d="M1275 1041 c-7 -12 12 -24 25 -16 11 7 4 25 -10 25 -5 0 -11 -4 -15
-9z"/>
<path d="M1328 1018 c-3 -7 -3 -30 0 -51 5 -40 25 -58 45 -38 8 8 8 11 -1 11
-7 0 -12 11 -12 25 0 33 23 32 38 0 15 -32 15 -55 2 -55 -5 0 -10 -7 -10 -15
0 -18 11 -19 31 -2 18 14 54 105 46 114 -9 8 -27 -7 -27 -23 0 -21 -18 -17
-25 6 -4 13 -15 20 -31 20 -13 0 -24 5 -24 10 0 14 -27 12 -32 -2z"/>
<path d="M652 998 c-17 -17 -15 -53 3 -68 8 -7 25 -10 40 -6 29 7 44 49 25 71
-15 18 -51 20 -68 3z m46 -31 c2 -10 -3 -17 -12 -17 -18 0 -29 16 -21 31 9 14
29 6 33 -14z"/>
<path d="M750 964 c0 -53 23 -58 28 -6 2 18 7 32 12 32 5 0 10 -14 12 -32 4
-43 26 -48 30 -6 2 18 8 33 13 33 6 0 11 -15 13 -33 4 -37 25 -39 30 -4 7 44
-13 60 -78 61 l-60 1 0 -46z"/>
<path d="M910 964 c0 -24 5 -44 10 -44 6 0 10 9 10 19 0 26 10 51 21 51 5 0 9
-16 9 -35 0 -24 5 -35 15 -35 10 0 15 11 15 35 0 19 4 35 9 35 11 0 21 -25 21
-51 0 -10 5 -19 11 -19 6 0 9 17 7 43 l-3 42 -62 1 -63 2 0 -44z"/>
<path d="M1060 982 c0 -41 20 -62 55 -59 28 2 30 6 33 45 2 33 0 42 -12 42
-11 0 -16 -10 -16 -30 0 -20 -5 -30 -15 -30 -10 0 -15 10 -15 30 0 20 -5 30
-15 30 -10 0 -15 -10 -15 -28z"/>
<path d="M1170 965 c0 -54 23 -59 28 -6 4 41 26 36 30 -7 5 -48 24 -38 20 11
-3 41 -4 42 -40 45 l-38 3 0 -46z"/>
<path d="M1280 965 c0 -25 5 -45 10 -45 6 0 10 20 10 45 0 25 -4 45 -10 45 -5
0 -10 -20 -10 -45z"/>
<path d="M960 846 c0 -33 3 -37 22 -34 22 3 39 38 19 38 -6 0 -8 -7 -4 -16 4
-11 2 -15 -7 -12 -7 2 -14 14 -15 26 -3 39 -15 37 -15 -2z"/>
<path d="M520 840 c0 -23 5 -30 19 -30 15 0 19 7 19 30 -1 22 -6 30 -20 30
-13 0 -18 -7 -18 -30z m30 -10 c0 -5 -4 -10 -10 -10 -5 0 -10 5 -10 10 0 6 5
10 10 10 6 0 10 -4 10 -10z"/>
<path d="M840 846 c0 -14 5 -28 10 -31 6 -3 10 1 10 9 0 22 27 20 33 -1 3 -10
5 -2 5 17 0 19 -2 29 -5 23 -6 -15 -33 -17 -33 -3 0 6 -4 10 -10 10 -5 0 -10
-11 -10 -24z"/>
<path d="M579 844 c-9 -11 -9 -18 -1 -26 14 -14 42 -3 42 16 0 20 -27 27 -41
10z m28 -20 c-9 -9 -28 6 -21 18 4 6 10 6 17 -1 6 -6 8 -13 4 -17z"/>
<path d="M633 844 c-4 -10 1 -22 11 -30 16 -12 16 -13 -1 -17 -14 -4 -14 -5 5
-6 19 -1 22 4 21 32 -1 17 -3 24 -6 15 -2 -10 -9 -18 -14 -18 -6 0 -7 9 -4 20
8 24 -3 27 -12 4z"/>
<path d="M691 847 c-14 -17 3 -41 23 -34 9 4 16 13 16 21 0 19 -26 28 -39 13z
m29 -18 c0 -5 -4 -9 -10 -9 -5 0 -10 7 -10 16 0 8 5 12 10 9 6 -3 10 -10 10
-16z"/>
<path d="M740 841 c0 -29 15 -33 16 -5 1 13 -2 24 -7 24 -5 0 -9 -9 -9 -19z"/>
<path d="M782 839 c-16 -25 -15 -29 8 -29 13 0 20 7 20 19 0 28 -14 33 -28 10z"/>
<path d="M911 833 c-1 -17 5 -23 19 -23 14 0 20 6 19 23 -1 16 -2 18 -6 5 -2
-10 -8 -18 -13 -18 -5 0 -11 8 -13 18 -4 13 -5 11 -6 -5z"/>
<path d="M1376 748 c-16 -35 -30 -66 -30 -70 -1 -3 35 -33 79 -66 58 -44 83
-57 92 -50 15 12 93 165 93 182 0 10 -168 66 -198 66 -4 0 -20 -28 -36 -62z"/>
<path d="M1277 595 c-15 -19 -27 -37 -27 -42 0 -4 7 3 16 15 15 21 41 22 28 0
-4 -7 0 -7 13 1 14 7 23 7 31 -1 9 -9 12 -9 12 2 0 9 4 8 14 -5 7 -10 21 -20
30 -21 14 -2 15 0 5 12 -6 7 -15 11 -20 8 -5 -3 -9 -2 -9 3 0 4 -15 20 -33 35
l-34 26 -26 -33z"/>
<path d="M406 598 c5 -7 2 -9 -8 -5 -16 6 -38 -10 -38 -27 0 -6 4 -5 9 3 11
17 49 22 58 8 3 -6 1 -7 -5 -4 -10 7 -92 -87 -92 -106 0 -5 -7 -4 -15 3 -14
11 -14 10 -6 -14 l11 -26 -28 16 c-15 9 2 -11 37 -45 35 -34 69 -61 75 -61 6
0 35 39 64 86 l53 86 -53 49 c-51 46 -77 62 -62 37z"/>
<path d="M1085 464 c-27 -13 -55 -24 -62 -24 -23 0 -25 -22 -7 -120 17 -99 17
-100 43 -94 42 10 141 56 141 66 0 5 5 6 12 2 7 -4 8 -3 4 5 -4 6 -11 9 -16 6
-10 -6 -20 19 -20 54 0 15 -5 32 -12 39 -14 14 -19 54 -5 45 5 -3 1 6 -8 21
-10 14 -18 26 -19 25 0 0 -23 -11 -51 -25z"/>
<path d="M538 428 c-19 -29 -44 -70 -56 -90 l-23 -37 42 -22 c51 -26 146 -59
168 -59 13 0 20 22 34 98 10 53 17 100 17 104 0 3 -26 15 -57 26 -32 11 -66
23 -75 27 -12 5 -25 -6 -50 -47z"/>
<path d="M1165 421 c-3 -5 -2 -12 3 -15 5 -3 9 1 9 9 0 17 -3 19 -12 6z"/>
<path d="M775 396 c-14 -61 -35 -169 -35 -182 0 -11 21 -14 108 -14 59 0 112
4 119 8 8 5 9 20 3 52 -5 25 -14 70 -20 101 l-11 56 -80 0 c-73 0 -80 -1 -84
-21z"/>
</g>
</svg>
